<?xml version="1.0" encoding="UTF-8"?>
<svg id="_2_12_square" data-name="2=12 square" xmlns="http://www.w3.org/2000/svg" viewBox="0 0 239.15 239.15">
  <defs>
    <style>
      .cls-1 {
        fill: #000;
      }

      .cls-1, .cls-2, .cls-3, .cls-4 {
        stroke-width: 0px;
      }

      .cls-2 {
        fill: #e81d28;
      }

      .cls-3 {
        fill: #179250;
      }

      .cls-4 {
        fill: #fff;
      }
    </style>
  </defs>
  <g>
    <g>
      <rect class="cls-3" x="5" y="178.79" width="64" height="25.53"/>
      <rect class="cls-3" x="5" y="146.57" width="64" height="25.53"/>
    </g>
    <polygon class="cls-4" points="66.55 181.78 66.55 201.42 54.77 201.42 54.77 202.57 67.7 202.57 67.7 181.78 66.55 181.78"/>
    <polygon class="cls-4" points="66.55 149.78 66.55 169.42 54.77 169.42 54.77 170.57 67.7 170.57 67.7 149.78 66.55 149.78"/>
  </g>
  <g>
    <path class="cls-2" d="M69,112.55v28.24H5.93l31.32-58.78,1.07-2c.86-1.57,1.29-3.12,1.29-4.65,0-3.86-2.26-5.79-6.79-5.79-1.76,0-3.3.66-4.61,1.97s-1.97,2.85-1.97,4.61c0,2,.86,3.81,2.57,5.43l-12.51,22.31c-5.24-3.24-9.27-7.36-12.08-12.37-2.81-5.01-4.22-10.53-4.22-16.59,0-9.39,3.31-17.43,9.94-24.13,6.63-6.7,14.63-10.05,24.02-10.05s17.46,3.31,24.06,9.94c6.6,6.63,9.9,14.68,9.9,24.17,0,5.43-1.22,10.49-3.65,15.16l-11.58,22.52h16.3Z"/>
    <g>
      <path class="cls-4" d="M67.7,139.57v-23.73c-.38,0-.76-.02-1.14-.03v22.62h-11.79v1.14h12.93Z"/>
      <path class="cls-4" d="M54.77,52.02c.32.28.63.57.95.86,6.1,5.79,9.19,12.92,9.19,21.21,0,4.74-1.14,9.21-3.38,13.29l-6.76,12.42v2.24s.05,0,.07,0l7.7-14.15c2.34-4.25,3.51-8.84,3.51-13.78,0-8.62-3.18-15.95-9.53-21.97-.57-.54-1.16-1.05-1.76-1.55v1.45Z"/>
    </g>
  </g>
  <g>
    <path class="cls-1" d="M239.15,81.36H72v-40.8h167.15v40.8Z"/>
    <polygon class="cls-4" points="236.08 43.78 236.08 58.78 236.08 63.42 236.08 64.57 236.08 78.42 224.3 78.42 224.3 79.57 237.23 79.57 237.23 64.57 237.23 58.78 237.23 43.78 236.08 43.78"/>
    <g>
      <g>
        <path class="cls-1" d="M222.41,105.36c-11.11-10.99-24.65-16.57-40.23-16.57,0,0,0,0-.01,0-10.04,0-19.34,2.37-27.63,7.03-8.16,4.59-15,11.21-20.34,19.7l36.72,20.59c2.74-2.79,5.85-4.2,9.23-4.2,3.09,0,5.82,1.16,8.11,3.45,2.29,2.29,3.45,5.02,3.45,8.11,0,7.91-3.44,11.92-10.24,11.92-2.64,0-5.35-.75-8.05-2.23l-3.36-1.8-32.74-17.45-65.35-34.82v104.71h46.49v-27.73l38.6,19.85c7.75,4.03,16.24,6.08,25.26,6.08,7.04,0,13.63-1.12,19.76-3.32,7.58-2.73,14.45-7.13,20.53-13.18,10.9-10.87,16.47-24.24,16.56-39.74,0-.12,0-.24,0-.37,0-15.58-5.63-29.05-16.74-40.04Z"/>
        <path class="cls-4" d="M221.27,106.09c-2.92-2.89-6.08-5.45-9.41-7.6l-.15-.1v1.39l.04.03c3.07,2.04,6,4.43,8.71,7.11,10.57,10.48,15.93,23.32,15.93,38.16v.13c0,.07,0,.15,0,.22-.08,14.78-5.38,27.52-15.75,37.88-2.75,2.75-5.74,5.18-8.88,7.24l-.05.03v1.37l.15-.1c3.42-2.18,6.64-4.77,9.59-7.71,10.59-10.58,16-23.6,16.09-38.69v-.18c0-.06,0-.12,0-.18,0-15.17-5.47-28.29-16.27-38.99Z"/>
      </g>
      <polygon class="cls-4" points="116.49 181.78 116.49 201.42 104.71 201.42 104.71 202.57 117.64 202.57 117.64 181.78 116.49 181.78"/>
    </g>
  </g>
</svg>