<?xml version="1.0" encoding="UTF-8"?>
<svg id="_2_12" data-name="2=12" xmlns="http://www.w3.org/2000/svg" viewBox="0 0 468.04 185.82">
  <defs>
    <style>
      .cls-1 {
        fill: #000;
      }

      .cls-1, .cls-2, .cls-3, .cls-4 {
        stroke-width: 0px;
      }

      .cls-2 {
        fill: #e81d28;
      }

      .cls-3 {
        fill: #179250;
      }

      .cls-4 {
        fill: #fff;
      }
    </style>
  </defs>
  <g>
    <g>
      <path class="cls-2" d="M127.98,133.16v52.39H11.01l58.09-109.02,1.99-3.71c1.59-2.92,2.39-5.79,2.39-8.62,0-7.16-4.2-10.74-12.6-10.74-3.27,0-6.12,1.22-8.55,3.65s-3.65,5.28-3.65,8.55c0,3.71,1.59,7.07,4.77,10.08l-23.21,41.38c-9.73-6.01-17.2-13.66-22.41-22.94C2.61,84.88,0,74.62,0,63.39,0,45.98,6.14,31.06,18.43,18.63,30.72,6.21,45.58,0,63,0s32.38,6.15,44.63,18.43c12.24,12.29,18.37,27.23,18.37,44.83,0,10.08-2.25,19.45-6.76,28.12l-21.49,41.78h30.24Z"/>
      <g>
        <path class="cls-4" d="M125.11,183.11v-38.63c-.62-.01-1.24-.03-1.86-.06v36.82h-19.18v1.86h21.04Z"/>
        <path class="cls-4" d="M104.06,24.87c.52.48,1.03.97,1.54,1.48,9.93,9.97,14.96,22.26,14.96,36.53,0,8.17-1.85,15.87-5.5,22.88l-11,21.38v3.85s.08,0,.12,0l12.54-24.38c3.81-7.31,5.71-15.23,5.71-23.74,0-14.85-5.17-27.47-15.51-37.84-.93-.94-1.89-1.81-2.86-2.66v2.49Z"/>
      </g>
    </g>
    <g>
      <path class="cls-3" d="M137.18,56.3h135.54v33.42h-135.54v-33.42ZM137.18,102.05h135.54v33.42h-135.54v-33.42Z"/>
      <path class="cls-4" d="M269.24,111.88v19.37h-19.18v1.86h21.04v-21.2c-.62-.01-1.24-.02-1.86-.03Z"/>
      <path class="cls-4" d="M269.24,66.88v19.37h-19.18v1.86h21.04v-21.2c-.62-.01-1.24-.02-1.86-.03Z"/>
    </g>
    <g>
      <path class="cls-1" d="M333.19,4.79v181.03h-51.33V4.79h51.33Z"/>
      <path class="cls-4" d="M329.64,8.73v174h-1.86V8.73h1.86Z"/>
      <path class="cls-1" d="M468.04,133.43v52.39h-116.98l58.09-109.02,1.99-3.71c1.59-2.92,2.39-5.79,2.39-8.62,0-7.16-4.2-10.74-12.6-10.74-3.27,0-6.12,1.22-8.55,3.65-2.43,2.43-3.65,5.28-3.65,8.55,0,3.71,1.59,7.07,4.77,10.08l-23.21,41.38c-9.73-6.01-17.2-13.66-22.41-22.94-5.22-9.28-7.82-19.54-7.82-30.77,0-17.42,6.14-32.34,18.43-44.76C370.78,6.49,385.63.28,403.05.28s32.38,6.15,44.63,18.43c12.24,12.29,18.37,27.23,18.37,44.83,0,10.08-2.25,19.45-6.76,28.12l-21.48,41.78h30.24Z"/>
    </g>
  </g>
  <g>
    <path class="cls-4" d="M466.11,183.11v-38.63c-.62-.01-1.24-.03-1.86-.06v36.82h-19.18v1.86h21.04Z"/>
    <path class="cls-4" d="M443.06,24.87c.52.48,1.03.97,1.54,1.48,9.93,9.97,14.96,22.26,14.96,36.53,0,8.17-1.85,15.87-5.5,22.88l-11,21.38v3.85s.08,0,.12,0l12.54-24.38c3.81-7.31,5.71-15.23,5.71-23.74,0-14.85-5.17-27.47-15.51-37.84-.93-.94-1.89-1.81-2.86-2.66v2.49Z"/>
  </g>
</svg>